<?xml version="1.0" encoding="UTF-8"?>
<svg xmlns="http://www.w3.org/2000/svg" xmlns:xlink="http://www.w3.org/1999/xlink" viewBox="0 0 48 48" width="48px" height="48px">
<g id="surface10249510">
<path style=" stroke:none;fill-rule:nonzero;fill:rgb(100%,100%,100%);fill-opacity:1;" d="M 24 7.5 C 33.113281 7.5 40.5 14.886719 40.5 24 C 40.5 33.113281 33.113281 40.5 24 40.5 C 14.886719 40.5 7.5 33.113281 7.5 24 C 7.5 14.886719 14.886719 7.5 24 7.5 Z M 32.007812 19.113281 C 32.460938 18.417969 32.261719 17.488281 31.566406 17.039062 C 30.867188 16.589844 29.941406 16.789062 29.492188 17.484375 L 22.210938 28.722656 L 18.375 24.367188 C 17.828125 23.746094 16.882812 23.683594 16.257812 24.230469 C 15.636719 24.777344 15.578125 25.726562 16.125 26.347656 L 21.265625 32.191406 C 21.550781 32.515625 21.960938 32.699219 22.390625 32.699219 C 22.429688 32.699219 22.464844 32.699219 22.5 32.695312 C 22.96875 32.664062 23.394531 32.410156 23.648438 32.015625 Z M 32.007812 19.113281 "/>
</g>
</svg>
