<svg width="700" height="700" xmlns="http://www.w3.org/2000/svg" version="1.1">

 <g>
  <title>Layer 1</title>
  <g id="svg_57">
   <path id="svg_21" d="m208.03998,461.5l98.395,0c6,0 11.547,-3.2031 14.547,-8.3984c3,-5.1992 3,-11.605 0,-16.801c-3,-5.1992 -8.5469,-8.4023 -14.547,-8.4023l-98.395,0c-27.32,-0.73047 -52.262,-15.73 -65.715,-39.523c-13.457,-23.793 -13.457,-52.895 0,-76.688c13.453,-23.793 38.395,-38.789 65.715,-39.523l98.395,0c6,0 11.547,-3.2031 14.547,-8.3984c3,-5.1992 3,-11.605 0,-16.801c-3,-5.1992 -8.5469,-8.4023 -14.547,-8.4023l-98.395,0c-39.227,0.87891 -75.109,22.316 -94.473,56.445c-19.363,34.125 -19.363,75.922 0,110.05c19.363,34.125 55.246,55.562 94.473,56.441l0,0.0014z" fill="#FFFFFF"/>
   <path id="svg_22" d="m491.95998,238.5l-98.395,0c-6,0 -11.547,3.2031 -14.547,8.3984c-3,5.1992 -3,11.605 0,16.801c3,5.1992 8.5469,8.4023 14.547,8.4023l98.395,0c27.32,0.73047 52.262,15.73 65.715,39.523c13.457,23.793 13.457,52.895 0,76.688c-13.453,23.793 -38.395,38.789 -65.715,39.523l-98.395,0c-6,0 -11.547,3.2031 -14.547,8.3984c-3,5.1992 -3,11.605 0,16.801c3,5.1992 8.5469,8.4023 14.547,8.4023l98.395,0c39.227,-0.87891 75.109,-22.316 94.473,-56.445c19.363,-34.125 19.363,-75.922 0,-110.05c-19.363,-34.125 -55.246,-55.562 -94.473,-56.441l0,-0.0014z" fill="#FFFFFF"/>
   <path id="svg_23" d="m217.61998,350c0,4.457 1.7695,8.7305 4.918,11.879c3.1523,3.1523 7.4258,4.9219 11.879,4.9219l231.17,0c6,0 11.547,-3.2031 14.547,-8.4023c3,-5.1953 3,-11.602 0,-16.797c-3,-5.1992 -8.5469,-8.4023 -14.547,-8.4023l-231.17,0c-4.4531,0 -8.7266,1.7695 -11.879,4.9219c-3.1484,3.1484 -4.918,7.4219 -4.918,11.879l0,-0.0002z" fill="#FFFFFF"/>
  </g>
 </g>
</svg>