<?xml version="1.0" encoding="UTF-8"?>
<svg width="700pt" height="700pt" version="1.1" viewBox="0 0 700 700" xmlns="http://www.w3.org/2000/svg">
 <path fill="#FFFFFF" d="m373.33 126.44v60.23h140c12.887 0 23.336 10.445 23.336 23.332v280c0 12.887-10.449 23.332-23.336 23.332h-326.66c-12.887 0-23.336-10.445-23.336-23.332v-280c0-12.887 10.449-23.332 23.336-23.332h140v-60.305l-26.355 26.352c-9.0273 9.0312-23.672 9.0234-32.848-0.15234-9.1094-9.1094-9.0547-23.938-0.14844-32.844l66.301-66.301c4.4883-4.4883 10.363-6.7461 16.27-6.75l0.17578 0.066406c5.9258 0.015625 11.82 2.2539 16.246 6.6836l66.301 66.301c9.0273 9.0273 9.0234 23.668-0.15234 32.844-9.1094 9.1133-23.938 9.0586-32.844 0.15234zm-46.664 106.89v-46.664h-93.336c12.887 0 23.336 10.445 23.336 23.332s-10.449 23.332-23.336 23.332zm46.664 0h116.67v-46.664h-116.67zm-46.664 0h-116.67v233.34h280v-233.34h-116.67v116.7c0 12.867-10.355 23.297-23.332 23.297-12.887 0-23.332-10.441-23.332-23.297zm163.33 0h-23.332c-12.887 0-23.336-10.445-23.336-23.332s10.449-23.332 23.336-23.332h23.332z"/>
</svg>
